<svg xmlns="http://www.w3.org/2000/svg" width="4374" height="1024" fill="#fff"><path d="M325.408 56.32H45.178V769.8h280.23c197.02 0 356.735-159.716 356.735-356.735S522.427 56.318 325.408 56.318h0zm-25.47 586.16h-101.93v-382.3l-76.437-76.46h178.367c126.657 0 229.333 102.676 229.333 229.333S426.593 642.388 299.936 642.388h0zm913.002-188.895c-.57-120.157-89.4-200.83-251.227-200.83-175.907 0-236.805 111.158-244.53 159.48h159.48c4.83-10.64 28.98-40.6 85.05-40.6 64.75 0 99.538 34.812 99.538 81.198H903.706c-122.73 0-198.2 55.1-198.2 155.607 0 98.582 86.985 169.14 202.973 169.14 77.12 0 127.288-33.263 152.645-64.316v54.793h152.144V453.653zM953.008 667.38c-56.957 0-92.795-24.15-92.795-63.792 0-35.746 29.982-52.173 79.262-52.173h121.775v34.8c0 50.26-46.386 81.175-108.242 81.175zm338.828-609.306h152.144v152.144h-152.144V58.074zm0 202.858h152.144v507.124h-152.144V260.932zm228.216-202.858h152.144v709.983h-152.144V58.074zm480.8 912.886h-160.528l85.686-207.734-228.467-502.294h181.192l128.017 308.23 127.994-308.23h161.508z"/><path d="M2813.232 58.074v202.86l76.05 76.05h-380.338v-278.9H2356.8v709.983h152.144v-202.86l-76.072-76.072h380.36v278.93h152.12V58.074h-152.12zm228.193 202.858h152.144v507.124h-152.144V260.932zm0-202.858h152.144v152.144h-152.144V58.074zm556.883 709.983h-159.685l-219.695-507.124h177.1l125.83 315.475L3647.656 260.9h160.642zm720.167-250.68v27.134h-380.862c7.723 62.835 54.132 110.2 123.734 110.2 61.856 0 87.965-28.023 96.668-38.73h155.63c-7.746 58.962-79.262 161.44-252.298 161.44-171.1 0-278.407-111.18-278.407-262.937 0-158.523 110.2-262.937 267.767-262.937 159.57 0 267.767 102.477 267.767 265.83zm-377.968-68.554h220.402c-14.422-53.244-53.152-83.203-110.1-83.203-58.096 0-95.688 31.896-110.292 83.203z" fill="#14ccdc"/></svg>